<svg width="640" height="640" viewBox="0 0 640 640" fill="none" xmlns="http://www.w3.org/2000/svg">
<g clip-path="url(#clip0_21_8)">
<path d="M91.4286 0C41 0 0 41 0 91.4286V548.571C0 599 41 640 91.4286 640H231.714V431.714H156.286V320H231.714V271.857C231.714 147.429 288 89.7143 410.286 89.7143C433.429 89.7143 473.429 94.2857 489.857 98.8571V200C481.286 199.143 466.286 198.571 447.571 198.571C387.571 198.571 364.429 221.286 364.429 280.286V320H483.857L463.286 431.714H364.286V640H548.571C599 640 640 599 640 548.571V91.4286C640 41 599 0 548.571 0H91.4286Z" fill="black"/>
</g>
<defs>
<clipPath id="clip0_21_8">
<rect width="640" height="640" fill="white"/>
</clipPath>
</defs>
</svg>
