<svg width="640" height="640" viewBox="0 0 640 640" fill="none" xmlns="http://www.w3.org/2000/svg">
<g clip-path="url(#clip0_21_6)">
<path d="M277.714 256.714C254.286 271.429 240.714 297.857 242.143 325.429C243.714 353.143 260.286 377.714 285.143 389.857C310.143 401.857 339.714 399.286 362.286 383.286C385.714 368.571 399.286 342.143 397.857 314.571C396.286 286.857 379.714 262.286 354.857 250.143C329.857 238.143 300.286 240.714 277.714 256.714ZM481 159C473.571 151.571 464.571 145.714 454.714 141.857C428.857 131.714 372.429 132.143 336 132.571C330.143 132.571 324.714 132.714 320 132.714C315.286 132.714 309.714 132.714 303.714 132.571C267.286 132.143 211.143 131.571 185.286 141.857C175.429 145.714 166.571 151.571 159 159C151.429 166.429 145.714 175.429 141.857 185.286C131.714 211.143 132.286 267.714 132.571 304.143C132.571 310 132.714 315.429 132.714 320C132.714 324.571 132.714 330 132.571 335.857C132.286 372.286 131.714 428.857 141.857 454.714C145.714 464.571 151.571 473.429 159 481C166.429 488.571 175.429 494.286 185.286 498.143C211.143 508.286 267.571 507.857 304 507.429C309.857 507.429 315.286 507.286 320 507.286C324.714 507.286 330.286 507.286 336.286 507.429C372.714 507.857 428.857 508.429 454.714 498.143C464.571 494.286 473.429 488.429 481 481C488.571 473.571 494.286 464.571 498.143 454.714C508.429 429 507.857 372.714 507.429 336.143C507.429 330.143 507.286 324.571 507.286 319.857C507.286 315.143 507.286 309.714 507.429 303.571C507.857 267.143 508.429 210.857 498.143 185C494.286 175.143 488.429 166.286 481 158.714V159ZM385.143 222.571C411 239.857 428.857 266.714 435 297.143C441.143 327.571 434.714 359.286 417.429 385.143C408.857 398 397.857 408.857 385.143 417.429C372.429 426 358 431.857 342.857 434.857C312.429 440.857 280.714 434.571 254.857 417.286C229 400 211.143 373.143 205 342.714C198.857 312.286 205.286 280.571 222.429 254.714C239.571 228.857 266.571 211 297 204.857C327.429 198.714 359.143 205.143 385 222.286H385.143V222.571ZM426.857 220.714C422.429 217.714 418.857 213.429 416.714 208.429C414.571 203.429 414.143 198 415.143 192.571C416.143 187.143 418.857 182.429 422.571 178.571C426.286 174.714 431.286 172.143 436.571 171.143C441.857 170.143 447.429 170.571 452.429 172.714C457.429 174.857 461.714 178.286 464.714 182.714C467.714 187.143 469.286 192.429 469.286 197.857C469.286 201.429 468.571 205 467.286 208.286C466 211.571 463.857 214.571 461.429 217.143C459 219.714 455.857 221.714 452.571 223.143C449.286 224.571 445.714 225.286 442.143 225.286C436.714 225.286 431.429 223.714 427 220.714H426.857ZM640 91.4286C640 41 599 0 548.571 0H91.4286C41 0 0 41 0 91.4286V548.571C0 599 41 640 91.4286 640H548.571C599 640 640 599 640 548.571V91.4286ZM510 510C483.286 536.714 450.857 545.143 414.286 547C376.571 549.143 263.429 549.143 225.714 547C189.143 545.143 156.714 536.714 130 510C103.286 483.286 94.8571 450.857 93.1429 414.286C91 376.571 91 263.429 93.1429 225.714C95 189.143 103.286 156.714 130 130C156.714 103.286 189.286 94.8571 225.714 93.1429C263.429 91 376.571 91 414.286 93.1429C450.857 95 483.286 103.286 510 130C536.714 156.714 545.143 189.143 546.857 225.714C549 263.286 549 376.286 546.857 414.143C545 450.714 536.714 483.143 510 509.857V510Z" fill="black"/>
</g>
<defs>
<clipPath id="clip0_21_6">
<rect width="640" height="640" fill="white"/>
</clipPath>
</defs>
</svg>
