<svg width="640" height="640" viewBox="0 0 640 640" fill="none" xmlns="http://www.w3.org/2000/svg">
<g clip-path="url(#clip0_21_2)">
<path d="M91.4286 0C41 0 0 41 0 91.4286V548.571C0 599 41 640 91.4286 640H548.571C599 640 640 599 640 548.571V91.4286C640 41 599 0 548.571 0H91.4286ZM98.5714 243.143H193.571V548.571H98.5714V243.143ZM201 146.429C201 176.857 176.429 201.429 146 201.429C115.571 201.429 91 176.857 91 146.429C91 116 115.571 91.4286 146 91.4286C176.429 91.4286 201 116 201 146.429ZM454.143 548.571V400C454.143 364.571 453.429 319 404.857 319C355.429 319 347.857 357.571 347.857 397.429V548.571H253V243.143H344V284.857H345.286C358 260.857 389 235.571 435.143 235.571C531.143 235.571 549 298.857 549 381.143V548.571H454.143Z" fill="black"/>
</g>
<defs>
<clipPath id="clip0_21_2">
<rect width="640" height="640" fill="white"/>
</clipPath>
</defs>
</svg>
