<svg width="640" height="640" viewBox="0 0 640 640" fill="none" xmlns="http://www.w3.org/2000/svg">
<g clip-path="url(#clip0_21_4)">
<path d="M91.4286 0C41 0 0 41 0 91.4286V548.571C0 599 41 640 91.4286 640H548.571C599 640 640 599 640 548.571V91.4286C640 41 599 0 548.571 0H91.4286ZM298.714 337L154.857 250.571C143.857 244 137.143 232.143 137.143 219.286C137.143 199.143 153.429 182.857 173.571 182.857H466.286C486.429 182.857 502.714 199.143 502.714 219.286C502.714 232.143 496 244 485 250.571L341.286 337C334.857 340.857 327.571 342.857 320 342.857C312.429 342.857 305.143 340.857 298.714 337ZM502.857 293.286V411.429C502.857 436.714 482.429 457.143 457.143 457.143H182.857C157.571 457.143 137.143 436.714 137.143 411.429V293.286L275.286 376.143C288.714 384.286 304.286 388.571 320 388.571C335.714 388.571 351.286 384.286 364.714 376.143L502.857 293.286Z" fill="black"/>
</g>
<defs>
<clipPath id="clip0_21_4">
<rect width="640" height="640" fill="white"/>
</clipPath>
</defs>
</svg>
