<svg width="640" height="640" viewBox="0 0 640 640" fill="none" xmlns="http://www.w3.org/2000/svg">
<g clip-path="url(#clip0_21_10)">
<path d="M91.4286 0C41 0 0 41 0 91.4286V548.571C0 599 41 640 91.4286 640H548.571C599 640 640 599 640 548.571V91.4286C640 41 599 0 548.571 0H91.4286ZM217.143 138.143C231.143 134.286 245.857 141.571 251.429 155L280.429 224.571C285.286 236.429 282 250 272 258.143L240.429 283.857C263.571 335 304 376.714 354.143 401.571L381.714 367.857C389.857 358 403.429 354.571 415.286 359.429L484.857 388.429C498.286 394 505.429 408.714 501.714 422.714L500.571 426.714C488 472.857 443.286 512.286 388.857 500.714C263.857 474.286 165.571 375.857 139 250.857C127.429 196.429 166.857 151.714 213 139.143L217 138L217.143 138.143Z" fill="black"/>
</g>
<defs>
<clipPath id="clip0_21_10">
<rect width="640" height="640" fill="white"/>
</clipPath>
</defs>
</svg>
