<svg width="530" height="504" viewBox="0 0 530 504" fill="none" xmlns="http://www.w3.org/2000/svg">
<ellipse cx="278.359" cy="488.5" rx="104.359" ry="15.5" fill="#D9D9D9" fill-opacity="0.34"/>
<path d="M444.673 139.331L438.774 141.219L407.359 143.945L398.333 157.928L391.865 155.901L366.349 133.598L362.653 121.993L357.607 109.548L341.758 95.5656L323.065 92L322.639 100.39L340.976 118.008L349.931 128.355L339.839 133.598L331.665 131.221L319.369 126.118V116.4L303.733 109.828L298.403 132.829L282.127 136.395L283.761 149.259L305.084 153.244L308.779 132.759L326.264 135.346L334.366 140.03H347.444L356.186 157.369L379.924 180.999L378.148 190.228L359.029 187.851L326.05 204.211L302.312 232.176L299.256 244.62H290.656L274.806 237.629L259.383 244.62L263.221 260.63L269.902 253.01H281.771L280.918 266.993L290.727 269.789L300.748 280.905L316.384 276.221L334.65 279.018L355.972 284.611L366.491 285.869L384.402 305.864L419.015 325.859L396.627 367.807L373.03 378.574L364.075 402.624L329.888 425.066L326.264 438C357.323 430.536 386.097 415.82 410.149 395.099C434.201 374.378 453.007 348.301 464.623 319C476.24 289.699 480.508 258.076 477.067 226.808C473.626 195.54 462.395 165.508 444.673 139.331Z" fill="black"/>
<path d="M302.742 350.363L288.296 323.89L301.514 296.926L288.007 293.004L272.838 278.227L239.178 271.223L228.055 247.901V261.348H223.143L194.251 223.249V191.873L173.015 158.396L139.283 164.209H116.457L104.973 157.206L119.419 146L105.329 149.5C87.4429 179.281 77.9674 213.107 77.8567 247.569C77.7461 282.032 86.6481 315.636 104.342 345.524C122.037 375.413 147.542 400.252 178.29 417.541C209.037 434.829 244.215 443.455 279.758 443.5C288.238 443.415 296.43 443.33 304.837 442.249L302.742 418.507C302.742 418.507 312.06 383.49 312.06 382.089C312.06 380.688 302.742 350.363 302.742 350.363Z" fill="black"/>
<path d="M151.544 115.979L187.58 111.097L204.085 102.379L222.68 107.54L252.374 105.936L262.609 90.4531L277.384 92.8244L313.42 89.5464L323.366 78.9453L337.781 69.9484L357.529 72.8079L364.736 71.5C324.221 52.9152 278.451 47.9617 234.694 57.426C190.937 66.8902 151.702 90.4915 123.219 124L151.544 115.979ZM286.825 72.5986L307.15 61.6488L320.411 69.0417L301.24 82.9905L282.933 84.8039L274.717 79.6428L286.825 72.5986ZM225.779 74.133L235.077 77.8992L246.825 74.133L253.311 85.0131L225.779 91.9875L212.59 84.5946C212.59 84.5946 225.491 76.5741 225.779 74.133Z" fill="black"/>
<path d="M278.267 52.5C388.883 52.5 478.535 140.04 478.535 248C478.535 355.96 388.883 443.5 278.267 443.5C167.651 443.5 77.9996 355.96 77.9996 248C77.9996 140.04 167.651 52.5 278.267 52.5Z" stroke="black"/>
<path d="M443.878 138.073C484.933 84.351 505.694 44.4775 495.12 33.8385C476.533 15.138 368.194 93.8667 253.11 209.657C138.026 325.448 59.7986 434.474 78.3851 453.174C88.7648 463.618 179.042 403.862 179.042 403.862" stroke="black"/>
<path d="M378.111 412.345C437.501 440.141 481.499 449.341 493.1 432.83C513.492 403.808 426.046 306.372 297.811 215.158C169.577 123.944 49.0911 73.5265 28.6987 102.549C7.45424 134.5 83.7521 202.182 83.7521 202.182" stroke="black"/>
<ellipse cx="422.382" cy="60" rx="12.9207" ry="13" fill="black"/>
<ellipse cx="122.225" cy="435" rx="7.95119" ry="8" fill="black"/>
<ellipse cx="368.215" cy="345.5" rx="12.4237" ry="12.5" fill="black"/>
<path d="M231.93 175.777C231.623 176.287 231.053 176.574 230.463 176.517L199.875 173.552C197.79 173.35 197.024 170.686 198.681 169.396L206.695 163.152L222.782 171.103C223.626 171.521 224.337 170.342 223.578 169.782L209.126 159.115L210.917 149.077C211.287 147.003 213.989 146.452 215.132 148.218L231.903 174.126C232.226 174.626 232.237 175.267 231.93 175.777Z" fill="black"/>
</svg>
