<svg width="20" height="20" viewBox="0 0 20 20" fill="none" xmlns="http://www.w3.org/2000/svg">
<path d="M13.3333 6.66663C14.6594 6.66663 15.9312 7.19341 16.8689 8.13109C17.8066 9.06877 18.3333 10.3405 18.3333 11.6666V17.5H15V11.6666C15 11.2246 14.8244 10.8007 14.5119 10.4881C14.1993 10.1756 13.7754 9.99996 13.3333 9.99996C12.8913 9.99996 12.4674 10.1756 12.1548 10.4881C11.8423 10.8007 11.6667 11.2246 11.6667 11.6666V17.5H8.33334V11.6666C8.33334 10.3405 8.86012 9.06877 9.79781 8.13109C10.7355 7.19341 12.0073 6.66663 13.3333 6.66663Z" stroke="#AEAEB2" stroke-linecap="round" stroke-linejoin="round"/>
<path d="M5.00001 7.49996H1.66667V17.5H5.00001V7.49996Z" stroke="#AEAEB2" stroke-linecap="round" stroke-linejoin="round"/>
<path d="M3.33334 4.99996C4.25381 4.99996 5.00001 4.25377 5.00001 3.33329C5.00001 2.41282 4.25381 1.66663 3.33334 1.66663C2.41286 1.66663 1.66667 2.41282 1.66667 3.33329C1.66667 4.25377 2.41286 4.99996 3.33334 4.99996Z" stroke="#AEAEB2" stroke-linecap="round" stroke-linejoin="round"/>
</svg>
