<svg width="559" height="746" viewBox="0 0 559 746" fill="none" xmlns="http://www.w3.org/2000/svg">
<path d="M444.887 725.202C387.32 753.986 319.593 757.372 233.242 696.418L48.6872 508.476C-20.732 433.976 -15.6527 301.909 62.2325 234.182L234.935 61.4779C273.878 15.7623 319.178 -3.5198 378.854 0.523699C487.216 7.86611 561.715 93.6484 558.329 186.773C551.556 254.5 544.784 279.898 497.375 325.613C486.666 335.557 488.096 334.48 473.67 349.318C455.046 366.249 458.433 366.249 473.67 381.488C498.236 406.054 529.545 433.976 541.397 467.84C582.033 554.191 548.17 676.1 444.887 725.202ZM465.205 147.83C444.887 100.421 372.081 56.3986 300.968 115.66C284.482 131.867 264.741 152.552 248.48 168.985C201.66 216.3 153.978 261.679 108.64 310.375C77.4706 351.011 71.6991 399.428 106.254 440.749C119.315 454.776 136.826 472.796 150.277 486.465C194.196 531.095 234.056 573.22 278.957 616.839C328.059 669.327 389.012 667.634 439.807 628.691C492.295 571.123 481.587 515.218 439.807 467.84C404.251 432.283 378.086 401.4 343.297 364.556C320.915 340.852 313.494 322.785 284.036 356.09C267.788 374.461 250.173 393.34 223.083 367.942C199.378 339.159 220.035 310.375 243.401 290.057C282.343 256.193 281.774 251.114 312.82 251.114C324.065 251.114 338.146 253.503 350.07 261.273C371.064 274.953 389.012 300.216 397.478 300.216C405.944 300.216 443.278 261.581 458.432 242.648C478.75 210.477 480.193 182.803 465.205 147.83Z" fill="white"/>
<path d="M444.886 725.2C387.318 753.984 319.592 757.37 233.241 696.416L185.832 648.138L248.479 586.36L278.955 616.837C328.057 669.326 389.011 667.632 439.806 628.689C492.294 571.122 481.585 515.217 439.806 467.838C404.249 432.281 378.084 401.398 343.296 364.555C320.913 340.85 313.492 322.784 284.035 356.089C267.786 374.46 250.172 393.338 223.081 367.941C199.377 339.157 220.033 310.373 243.399 290.055C282.342 256.191 281.772 251.112 312.819 251.112C324.064 251.112 338.145 253.501 350.068 261.271C371.063 274.952 395.784 301.907 395.784 301.907L473.669 381.486C498.234 406.052 529.544 433.974 541.396 467.838C582.032 554.19 548.169 676.098 444.886 725.2Z" fill="#00F8F8"/>
<path d="M235.405 471.664C260.424 446.401 284.849 422.238 308.612 397.441C315.798 389.943 320.765 389.691 327.914 397.129C342.349 412.148 357.234 426.751 372.339 441.1C376.317 444.88 376.403 451.927 372.339 455.986C352.016 476.286 332.44 497.352 311.736 517.248C294.267 534.034 271.94 536.935 254.172 520.465C247.158 513.962 241.238 506.203 233.874 500.171C223.091 489.85 222.425 484.77 235.405 471.664Z" fill="white"/>
</svg>
