<svg width="26" height="35" viewBox="0 0 26 35" fill="none" xmlns="http://www.w3.org/2000/svg">
<path d="M17.4776 34.6767V34.6777V34.6767ZM13.7178 34.0185L13.7188 34.0195L13.7178 34.0185ZM20.461 33.8857V33.8867V33.8857ZM13.0323 33.7167V33.7158V33.7167ZM17.6387 0.0243657C22.6839 0.366216 26.1528 4.36052 25.9952 8.69624C25.6798 11.8491 25.3645 13.0318 23.1573 15.1601C22.6587 15.6231 22.7253 15.5729 22.0537 16.2636C21.442 16.8198 21.3408 16.9829 21.583 17.2802L18.4268 14.0566C18.4268 14.0566 18.3638 13.9881 18.2549 13.875C18.3515 13.9399 18.4357 13.9774 18.5059 13.9775C18.9001 13.9775 20.6383 12.1783 21.3438 11.2968C22.2896 9.79913 22.357 8.51094 21.6592 6.88276C20.7132 4.67551 17.3236 2.62575 14.0127 5.38472C13.2453 6.13913 12.3264 7.10212 11.5694 7.86714C9.38951 10.07 7.16855 12.183 5.05765 14.4501C3.6065 16.3421 3.33847 18.5966 4.9473 20.5205C5.55538 21.1735 6.3709 22.013 6.99711 22.6494C8.56522 24.2428 10.0227 25.7673 11.5596 27.3076L8.65238 30.1757L10.8594 32.4238L2.26664 23.6738C-0.965339 20.2052 -0.728606 14.0565 2.8975 10.9033L10.9385 2.86226C12.7516 0.73395 14.8604 -0.163824 17.6387 0.0243657ZM12.9883 28.7187H12.9873H12.9883ZM20.4766 21.7822V21.7812V21.7822ZM15.9834 16.9726C15.8532 16.8347 15.734 16.7007 15.6221 16.5751C15.734 16.7007 15.8532 16.8347 15.9834 16.9726C16.3883 17.4013 16.768 17.813 17.1358 18.2148C16.768 17.813 16.3882 17.4013 15.9834 16.9726ZM11.9942 17.6191H11.9952H11.9942ZM10.7295 17.4111V17.4101V17.4111Z" fill="black"/>
<path d="M14.5641 11.9413C15.0576 11.9413 15.6604 12.0472 16.1618 12.3739C16.6303 12.6792 17.1492 13.1385 17.5563 13.5292C17.7585 13.7231 17.9309 13.8975 18.0524 14.0233C18.1129 14.086 18.1604 14.137 18.193 14.1718C18.2092 14.1889 18.2218 14.2028 18.2301 14.2118C18.2343 14.2163 18.2379 14.2203 18.2399 14.2225L18.2487 14.2313L21.8747 17.9364L21.8766 17.9384C22.4559 18.5177 23.0942 19.1173 23.6628 19.7733C24.2297 20.4275 24.7094 21.1186 24.9704 21.8641L24.9753 21.8768L24.9801 21.8885C26.8158 25.7896 25.2849 31.3134 20.6061 33.538L20.6012 33.5409C19.2942 34.1943 17.882 34.5548 16.3112 34.412C14.7431 34.2694 12.9967 33.6223 11.0202 32.2303L9.00554 30.1786L11.5661 27.6522C11.9781 28.0674 12.372 28.4688 12.8132 28.8973C13.9923 30.1544 15.329 30.7783 16.6911 30.8407C18.0528 30.9031 19.4098 30.403 20.6286 29.4686L20.6462 29.4559L20.6618 29.4393C21.918 28.0616 22.439 26.6779 22.3727 25.3358C22.3067 23.9996 21.6597 22.7455 20.6637 21.6161L20.6589 21.6102L20.653 21.6053L20.0524 20.994C18.692 19.5904 17.5929 18.3142 16.1647 16.8016C16.0373 16.6667 15.9203 16.5348 15.8083 16.4091C15.6974 16.2845 15.5897 16.1641 15.486 16.0555C15.283 15.843 15.0678 15.6474 14.82 15.5487C14.5521 15.4421 14.2724 15.4578 13.9743 15.6083C13.6903 15.7518 13.3863 16.0179 13.0368 16.413C12.6484 16.8521 12.2935 17.2329 11.903 17.3856C11.719 17.4575 11.5288 17.4774 11.319 17.4218C11.1069 17.3654 10.8583 17.227 10.5671 16.9559C10.0886 16.3657 10.0646 15.7975 10.2712 15.2596C10.4877 14.696 10.9634 14.157 11.4967 13.6932C11.9504 13.2987 12.2946 12.9829 12.5651 12.743C12.8399 12.4994 13.0385 12.334 13.2204 12.2177C13.56 12.0005 13.8564 11.9413 14.5641 11.9413Z" stroke="black" stroke-width="0.5"/>
<path d="M10.9597 21.9599C12.1246 20.7837 13.2618 19.6587 14.3681 18.5042C14.7027 18.1551 14.9339 18.1433 15.2668 18.4897C15.9389 19.1889 16.6319 19.8688 17.3351 20.5369C17.5204 20.7129 17.5244 21.0409 17.3351 21.23C16.3889 22.1751 15.4775 23.1559 14.5136 24.0822C13.7003 24.8637 12.6607 24.9988 11.8335 24.232C11.5069 23.9292 11.2313 23.568 10.8884 23.2871C10.3864 22.8066 10.3554 22.5701 10.9597 21.9599Z" fill="black"/>
</svg>
