<svg width="14" height="18" viewBox="0 0 14 18" fill="none" xmlns="http://www.w3.org/2000/svg">
<path d="M8.82744 0.012207C11.3521 0.183445 13.088 2.1824 13.0091 4.35205C12.8513 5.92982 12.6927 6.52134 11.5882 7.58643C11.3388 7.818 11.3725 7.79351 11.0364 8.13916C10.7244 8.42284 10.6785 8.50133 10.8089 8.65576L9.22197 7.03467C9.22197 7.03467 9.18109 6.99405 9.11552 6.92627C9.17294 6.96803 9.22076 6.99463 9.26103 6.99463C9.45826 6.99459 10.3277 6.09504 10.681 5.65381C11.1543 4.90439 11.1882 4.25946 10.8392 3.44482C10.3658 2.34022 8.66891 1.31407 7.01201 2.69482C6.62797 3.07238 6.16815 3.55421 5.78935 3.93701C4.69847 5.03942 3.58791 6.09734 2.53154 7.23193C1.80535 8.17872 1.67077 9.30631 2.47588 10.269C2.78018 10.5959 3.18788 11.016 3.50127 11.3345C4.286 12.1319 5.01537 12.8947 5.78447 13.6655L4.32939 15.1011L5.43388 16.2261L1.13408 11.8472C-0.483127 10.1114 -0.364812 7.0346 1.44951 5.45654L5.47392 1.43213C6.38124 0.36712 7.43709 -0.0819987 8.82744 0.012207ZM12.0091 15.5854H12.0101H12.0091ZM7.16826 14.9292H7.16924H7.16826ZM10.2474 10.9009V10.8999V10.9009ZM11.9358 9.81299H11.9368H11.9358ZM5.31377 8.67236V8.67139C5.38924 8.7297 5.46124 8.77302 5.53056 8.80322V8.8042C5.46128 8.77405 5.3892 8.73059 5.31377 8.67236ZM6.32451 8.604H6.32549H6.32451Z" fill="white"/>
<path d="M7.2887 6.0011C7.53265 6.00113 7.82932 6.05303 8.07483 6.21301C8.30711 6.36441 8.56485 6.5931 8.76819 6.78821C8.86909 6.88503 8.95561 6.97247 9.01624 7.03528C9.04646 7.06659 9.0703 7.09219 9.08655 7.1095C9.09461 7.11808 9.10099 7.12459 9.1051 7.12903L9.11096 7.13489V7.13586L9.11389 7.13879L10.9293 8.99329L10.9303 8.99426C11.2209 9.28492 11.5391 9.58386 11.8229 9.91125C12.1057 10.2376 12.3432 10.5814 12.4723 10.9503L12.4781 10.964C13.3912 12.9043 12.6298 15.6537 10.3014 16.7609L10.2985 16.7628C9.64767 17.0882 8.9453 17.2674 8.16467 17.1964C7.38551 17.1255 6.51592 16.8038 5.52991 16.1095L4.54163 15.1027L5.7887 13.8732L6.39514 14.4796C6.98861 15.1117 7.66282 15.4274 8.3512 15.4591C9.0397 15.4906 9.72499 15.2371 10.3385 14.7667L10.3492 14.7589L10.358 14.7491C10.9901 14.0559 11.2539 13.3575 11.2203 12.6779C11.1869 12.0017 10.8607 11.3687 10.36 10.8009L10.3531 10.7941C9.52558 9.96649 8.92608 9.25712 8.10803 8.39075C8.04454 8.3235 7.98539 8.25839 7.92932 8.19543C7.87399 8.13331 7.82036 8.07235 7.76819 8.0177C7.66629 7.91099 7.55489 7.80946 7.42542 7.75793C7.28402 7.70168 7.13684 7.71007 6.98206 7.78821C6.83563 7.86214 6.68117 7.99877 6.50549 8.19739C6.31013 8.41826 6.13662 8.60403 5.94788 8.67786C5.86024 8.71212 5.76996 8.72081 5.67053 8.69446C5.5695 8.66759 5.44892 8.60059 5.3053 8.46692C5.07407 8.18004 5.0628 7.90612 5.16272 7.64563C5.26887 7.36929 5.50339 7.10235 5.76917 6.87122C5.9963 6.6737 6.16937 6.51528 6.30432 6.39563C6.44202 6.27354 6.54023 6.19198 6.62952 6.13489C6.79344 6.03008 6.93594 6.0011 7.2887 6.0011Z" stroke="white" stroke-width="0.75"/>
<path d="M5.48456 10.9895C6.0675 10.4009 6.6366 9.83793 7.19027 9.26016C7.35769 9.08546 7.47342 9.07958 7.64 9.2529C7.97633 9.60282 8.32315 9.94308 8.67507 10.2774C8.76777 10.3655 8.76977 10.5297 8.67507 10.6242C8.20155 11.0972 7.74545 11.588 7.26304 12.0516C6.85603 12.4427 6.33581 12.5103 5.92183 12.1266C5.75839 11.9751 5.62047 11.7943 5.44889 11.6537C5.19765 11.4132 5.18214 11.2949 5.48456 10.9895Z" fill="white"/>
</svg>
