<svg width="559" height="746" viewBox="0 0 559 746" fill="none" xmlns="http://www.w3.org/2000/svg">
<path d="M444.891 725.869C387.323 754.653 319.596 758.04 233.244 697.086L48.6875 509.143C-20.7322 434.643 -15.6528 302.576 62.233 234.849L234.937 62.1447C273.88 16.4291 319.181 -2.85305 378.857 1.19045C487.22 8.53287 561.72 94.3153 558.334 187.44C551.561 255.167 544.788 280.565 497.379 326.28C486.67 336.224 488.1 335.147 473.674 349.985C455.049 366.917 458.436 366.916 473.674 382.155C498.24 406.721 529.55 434.643 541.402 468.507C582.038 554.859 548.174 676.767 444.891 725.869ZM465.208 148.497C444.89 101.088 372.084 57.0654 300.97 116.327C284.485 132.533 264.743 153.219 248.482 169.652C201.662 216.967 153.979 262.346 108.64 311.042C77.4713 351.678 71.6997 400.095 106.255 441.416C119.316 455.444 136.827 473.464 150.278 487.132C194.198 531.762 234.058 573.887 278.959 617.506C328.061 669.995 389.015 668.302 439.811 629.359C492.299 571.791 481.591 515.886 439.811 468.507C404.254 432.95 378.089 402.067 343.3 365.223C320.917 341.519 313.496 323.452 284.039 356.757C267.79 375.128 250.175 394.007 223.084 368.61C199.38 339.826 220.037 311.042 243.402 290.724C282.345 256.86 281.776 251.781 312.823 251.781C324.068 251.781 338.149 254.17 350.073 261.94C371.067 275.62 389.016 300.883 397.481 300.883C405.947 300.883 443.282 262.248 458.436 243.315C478.754 211.144 480.197 183.47 465.208 148.497Z" fill="black"/>
<path d="M444.888 725.867C387.32 754.651 319.593 758.037 233.241 697.083L185.833 648.804L248.48 587.026L278.957 617.504C328.059 669.992 389.013 668.299 439.808 629.356C492.297 571.788 481.588 515.883 439.808 468.504C404.252 432.948 378.086 402.064 343.297 365.221C320.915 341.516 313.494 323.45 284.036 356.755C267.788 375.126 250.173 394.005 223.082 368.607C199.377 339.823 220.034 311.039 243.4 290.721C282.343 256.857 281.774 251.778 312.82 251.778C324.066 251.778 338.147 254.167 350.07 261.937C371.065 275.618 395.786 302.573 395.786 302.573L473.672 382.152C498.237 406.719 529.547 434.641 541.399 468.504C582.035 554.856 548.172 676.765 444.888 725.867Z" fill="#00F8F8"/>
<path d="M235.398 472.332C260.417 447.069 284.843 422.906 308.606 398.109C315.792 390.611 320.758 390.359 327.908 397.797C342.343 412.816 357.228 427.419 372.333 441.768C376.311 445.548 376.397 452.595 372.333 456.654C352.01 476.955 332.434 498.02 311.729 517.916C294.261 534.702 271.933 537.603 254.165 521.133C247.151 514.631 241.231 506.871 233.867 500.839C223.084 490.518 222.418 485.438 235.398 472.332Z" fill="black"/>
</svg>
